<svg width="200" height="418" viewBox="0 0 200 418" fill="none" xmlns="http://www.w3.org/2000/svg">
<path fill-rule="evenodd" clip-rule="evenodd" d="M-39.8094 -206.859C31.9645 -223.251 124.398 -264.958 175.589 -212.046C229.476 -156.348 172.678 -62.7164 174.602 14.7584C175.815 63.6042 184.846 108.532 184.762 157.393C184.632 233.094 225.078 322.825 173.977 378.677C124.352 432.915 31.7154 419.833 -39.8094 402.843C-102.031 388.063 -137.187 327.133 -190.665 292.06C-248.268 254.281 -346.652 256.455 -364.473 189.915C-382.533 122.485 -298.987 72.442 -265.956 10.9454C-240.698 -36.0792 -232.345 -90.6315 -193.898 -127.66C-151.259 -168.726 -97.5223 -193.678 -39.8094 -206.859Z" fill="#E8E36D"/>
</svg>
