<svg width="283" height="656" viewBox="0 0 283 656" fill="none" xmlns="http://www.w3.org/2000/svg">
<path fill-rule="evenodd" clip-rule="evenodd" d="M327.191 31.1415C398.964 14.7493 491.398 -26.9576 542.589 25.9541C596.476 81.6519 539.678 175.284 541.602 252.758C542.815 301.604 551.846 346.532 551.762 395.393C551.632 471.094 592.078 560.825 540.977 616.677C491.352 670.915 398.715 657.833 327.191 640.843C264.969 626.063 229.813 565.133 176.335 530.06C118.732 492.281 20.3482 494.455 2.52656 427.915C-15.533 360.485 68.0133 310.442 101.044 248.945C126.302 201.921 134.655 147.368 173.102 110.34C215.741 69.2738 269.478 44.3223 327.191 31.1415Z" fill="#E8E36D"/>
</svg>
