<svg width="472" height="656" viewBox="0 0 472 656" fill="none" xmlns="http://www.w3.org/2000/svg">
<path fill-rule="evenodd" clip-rule="evenodd" d="M232.191 31.1415C303.964 14.7493 396.398 -26.9576 447.589 25.9541C501.476 81.6519 444.678 175.284 446.602 252.758C447.815 301.604 456.846 346.532 456.762 395.393C456.632 471.094 497.078 560.825 445.977 616.677C396.352 670.915 303.715 657.833 232.191 640.843C169.969 626.063 134.813 565.133 81.3349 530.06C23.732 492.281 -74.6518 494.455 -92.4734 427.915C-110.533 360.485 -26.9867 310.442 6.04425 248.945C31.3021 201.921 39.6549 147.368 78.1018 110.34C120.741 69.2738 174.478 44.3223 232.191 31.1415Z" fill="#E8E36D"/>
</svg>
